<svg width="32" height="32" viewBox="0 0 32 32" fill="none" xmlns="http://www.w3.org/2000/svg">
<path d="M0.395004 16C0.395004 24.836 7.558 32 16.395 32C23.464 32 29.462 27.415 31.577 21.058C31.725 20.258 31.23 19.964 30.807 19.964C30.426 19.964 29.165 19.979 27.828 19.986C28.796 24.438 25.94 25.377 25.94 25.377C24.091 26.105 23.599 27.153 23.599 27.153C22.606 28.605 22.626 27.043 22.626 27.043C22.739 25.437 24.275 24.591 24.275 24.591C26.721 23.164 26.014 20.848 25.605 19.935C24.571 19.792 23.865 19.377 23.465 18.919C23.061 22.473 21.688 26.209 15.558 26.209C13.811 26.209 12.384 25.584 11.263 24.56C10.86 24.726 9.233 25.274 7.029 24.405C7.029 24.405 6.599 23.061 8.669 20.004C8.314 18.728 8.137 17.359 8.13 15.999C8.136 14.64 8.314 13.27 8.669 11.991C6.599 8.937 7.029 7.596 7.029 7.596C9.233 6.725 10.86 7.273 11.263 7.439C12.383 6.413 13.811 5.792 15.558 5.792C21.703 5.792 23.056 9.535 23.453 13.098C23.95 12.524 24.923 12.013 26.416 12.013C28.557 12.013 30.28 12.032 30.807 12.032C31.233 12.032 31.732 11.744 31.575 10.933C29.457 4.579 23.462 0 16.395 0C7.558 0 0.395004 7.164 0.395004 16V16Z" fill="black"/>
</svg>
