<svg width="32" height="32" viewBox="0 0 32 32" fill="none" xmlns="http://www.w3.org/2000/svg">
<path d="M2.882 15.982C2.882 11.707 2.901 11.201 2.976 9.51999C3.045 7.95699 3.307 7.11399 3.526 6.55099C3.814 5.80699 4.164 5.26999 4.72 4.71399C5.283 4.15099 5.814 3.80799 6.558 3.51399C7.121 3.29499 7.97 3.03299 9.527 2.96399C11.215 2.88899 11.721 2.87 15.99 2.87C20.259 2.87 20.771 2.88899 22.453 2.96399C24.016 3.03299 24.859 3.29499 25.422 3.51399C26.166 3.80199 26.703 4.15099 27.259 4.70799C27.822 5.27099 28.165 5.80199 28.459 6.54499C28.678 7.10799 28.94 7.95799 29.009 9.51399C29.084 11.202 29.103 11.708 29.103 15.977C29.103 20.246 29.084 20.758 29.009 22.44C28.94 24.003 28.678 24.846 28.459 25.409C28.171 26.153 27.822 26.69 27.265 27.247C26.702 27.81 26.171 28.153 25.428 28.447C24.865 28.666 24.015 28.928 22.459 28.997C20.771 29.072 20.265 29.091 15.996 29.091C11.727 29.091 11.215 29.072 9.533 28.997C7.97 28.928 7.127 28.666 6.564 28.447C5.82 28.159 5.283 27.809 4.726 27.253C4.163 26.69 3.82 26.159 3.526 25.415C3.307 24.852 3.045 24.003 2.976 22.446C2.901 20.765 2.882 20.258 2.882 15.983V15.982ZM0.001 15.982C0.001 20.326 0.02 20.869 0.095 22.576C0.17 24.276 0.445 25.445 0.839 26.457C1.251 27.513 1.795 28.407 2.689 29.294C3.577 30.188 4.47 30.732 5.52 31.144C6.539 31.538 7.701 31.813 9.401 31.888C11.114 31.963 11.657 31.982 16.001 31.982C20.345 31.982 20.888 31.963 22.595 31.888C24.295 31.813 25.464 31.538 26.476 31.144C27.532 30.731 28.426 30.188 29.313 29.294C30.2 28.407 30.751 27.513 31.157 26.463C31.551 25.444 31.826 24.282 31.901 22.582C31.976 20.876 31.995 20.332 31.995 15.988C31.995 11.644 31.976 11.1 31.901 9.394C31.826 7.694 31.551 6.52499 31.157 5.51299C30.751 4.46299 30.201 3.569 29.313 2.682C28.425 1.795 27.532 1.244 26.482 0.837996C25.463 0.443996 24.301 0.168994 22.601 0.0939941C20.895 0.0189941 20.351 -5.72205e-06 16.007 -5.72205e-06C11.663 -5.72205e-06 11.12 0.0189941 9.413 0.0939941C7.713 0.168994 6.544 0.443996 5.532 0.837996C4.469 1.232 3.576 1.77599 2.688 2.66899C1.801 3.55599 1.25 4.44999 0.844 5.49999C0.45 6.51899 0.175 7.68099 0.1 9.38099C0.019 11.093 0 11.637 0 15.981L0.001 15.982Z" fill="black"/>
<path d="M7.78101 16.001C7.78101 20.538 11.462 24.22 16 24.22C20.538 24.22 24.219 20.539 24.219 16.001C24.219 11.463 20.538 7.782 16 7.782C11.463 7.782 7.78101 11.463 7.78101 16.001V16.001ZM21.331 16.001C21.331 18.945 18.944 21.332 16 21.332C13.056 21.332 10.669 18.945 10.669 16.001C10.669 13.057 13.056 10.67 16 10.67C18.944 10.67 21.331 13.057 21.331 16.001Z" fill="black"/>
<path d="M7.919 6.00001C8.979 6.00001 9.838 6.85901 9.838 7.91901C9.838 8.97901 8.979 9.83801 7.919 9.83801C6.859 9.83801 6 8.97901 6 7.91901C6 6.85901 6.859 6.00001 7.919 6.00001V6.00001Z" fill="black"/>
</svg>
