<svg width="50" height="52" viewBox="0 0 50 52" fill="none" xmlns="http://www.w3.org/2000/svg">
<path d="M33.7288 48.3351H33.729C33.729 48.5111 33.5889 48.6544 33.4166 48.6544H3.58403C3.41172 48.6544 3.27161 48.5111 3.27161 48.3351V3.66506C3.27161 3.48886 3.41172 3.34558 3.58403 3.34558H33.4166C33.5889 3.34558 33.729 3.48886 33.729 3.66506V6.7771L36.9978 3.55141C36.9387 1.58299 35.3555 0 33.4166 0H3.58403C1.60783 0 0 1.64407 0 3.66506V48.3351C0 50.3558 1.60772 52 3.58391 52H33.4165C35.3927 52 37.0004 50.3559 37.0004 48.3351V32.6104L33.7288 35.9559V48.3351V48.3351Z" fill="white"/>
<path d="M5.71655 39.2265C5.71655 40.1503 6.44897 40.8993 7.35236 40.8993H13.073C12.4646 39.9092 12.2119 38.7305 12.3713 37.5538H7.35236V37.5537C6.44897 37.5537 5.71655 38.3027 5.71655 39.2265Z" fill="white"/>
<path d="M14.1337 29.1584H7.35236C6.44897 29.1584 5.71655 29.9074 5.71655 30.8312C5.71655 31.7551 6.44897 32.504 7.35236 32.504H13.4249L14.1337 29.1584Z" fill="white"/>
<path d="M20.0523 20.7632H7.35236C6.44897 20.7632 5.71655 21.5122 5.71655 22.436C5.71655 23.3598 6.44897 24.1088 7.35236 24.1088H16.7807L20.0523 20.7632Z" fill="white"/>
<path d="M28.262 12.3677H7.35236C6.44897 12.3677 5.71655 13.1167 5.71655 14.0405C5.71655 14.9643 6.44897 15.7133 7.35236 15.7133H24.9904L28.262 12.3677Z" fill="white"/>
<path d="M48.0704 6.84643C45.3922 4.02673 41.032 4.04013 38.3607 6.77184C36.853 8.31361 18.9394 26.6322 18.1011 27.4896C17.8849 27.7106 17.7264 28.0005 17.659 28.3183L15.633 37.8827C15.5169 38.4303 15.6762 39.0117 16.0751 39.4197C16.4713 39.8251 17.039 39.9913 17.5781 39.8718L26.931 37.8C27.2388 37.7317 27.529 37.5654 27.7414 37.3479L48.001 16.6301C50.6568 13.9145 50.6523 9.56349 48.0704 6.84643ZM19.3682 36.052L20.2215 32.0237L23.3075 35.1794L19.3682 36.052ZM45.6876 14.2644L26.5847 33.7993L21.5711 28.6723L40.674 9.13741C42.103 7.6759 44.4409 7.72449 45.8095 9.26842C47.0655 10.6836 47.0375 12.884 45.6876 14.2644Z" fill="white"/>
</svg>
