<svg width="30" height="50" viewBox="0 0 30 50" fill="none" xmlns="http://www.w3.org/2000/svg">
<g clip-path="url(#clip0_261_40)">
<path d="M26.1378 0H4.06056C2.13911 0 0.574707 1.41432 0.574707 3.15123V46.8488C0.574707 48.5858 2.1392 50 4.06056 50H26.1378C28.0593 50 29.6237 48.5857 29.6237 46.8488V3.15123C29.6237 1.41432 28.0601 0 26.1378 0ZM26.1378 48.7396H4.06056C3.02129 48.7396 2.16234 48.048 2.00253 47.1471C2.50355 48.0295 3.50938 48.6395 4.67969 48.6395H25.5187C26.6891 48.6395 27.6949 48.0286 28.1958 47.1471C28.0359 48.048 27.177 48.7396 26.1378 48.7396ZM12.857 2.3344C12.8904 2.41674 12.9778 2.47053 13.0736 2.47053H16.87C16.9723 2.47053 17.0624 2.41007 17.0921 2.32175L17.2474 1.86126C17.2567 1.8327 17.2417 1.80748 17.238 1.77892H25.5178C26.9279 1.77892 28.0741 2.8151 28.0741 4.08986V45.9085C28.0741 47.1832 26.9279 48.2194 25.5178 48.2194H4.67959C3.26946 48.2194 2.12326 47.1832 2.12326 45.9085V4.09074C2.12326 2.81598 3.26946 1.7798 4.67959 1.7798H12.6673C12.6636 1.8117 12.6506 1.84202 12.6645 1.87392L12.857 2.3344ZM13.121 1.7798H16.7891L16.6971 2.05038H13.2336L13.121 1.7798ZM25.5187 1.35965H4.67959C3.50928 1.35965 2.50345 1.97059 2.00243 2.85209C2.16234 1.95204 3.02119 1.25965 4.06046 1.25965H26.1377C27.1769 1.25965 28.0358 1.95125 28.1957 2.85209C27.6949 1.97059 26.6891 1.35965 25.5187 1.35965Z" fill="#525252"/>
<path d="M25.6186 5H4.57983C4.02755 5 3.57983 5.44772 3.57983 6V41C3.57983 41.5523 4.02755 42 4.57983 42H25.6186C26.1709 42 26.6186 41.5523 26.6186 41V6C26.6186 5.44772 26.1709 5 25.6186 5Z" fill="#525252"/>
<path d="M15.7382 43.9604H14.4015C13.7601 43.9604 13.2395 44.4318 13.2395 45.0109V45.3789C13.2395 45.9578 13.7601 46.4293 14.4015 46.4293H15.7382C16.3787 46.4293 16.9001 45.9578 16.9001 45.3789V45.0109C16.9002 44.431 16.3787 43.9604 15.7382 43.9604ZM16.4354 45.3782C16.4354 45.7252 16.1221 46.0084 15.7382 46.0084H14.4015C14.0176 46.0084 13.7043 45.7252 13.7043 45.3782V45.0102C13.7043 44.6631 14.0176 44.3798 14.4015 44.3798H15.7382C16.1221 44.3798 16.4354 44.6631 16.4354 45.0102V45.3782Z" fill="#525252"/>
<path d="M20.6566 3.74717C21.0309 3.74717 21.3343 3.4729 21.3343 3.13457C21.3343 2.79624 21.0309 2.52197 20.6566 2.52197C20.2824 2.52197 19.979 2.79624 19.979 3.13457C19.979 3.4729 20.2824 3.74717 20.6566 3.74717Z" fill="#525252"/>
<path d="M22.5536 44.9009H22.0879V44.7429L21.5859 45.0043L22.0879 45.2665V45.1118H22.5536C23.1317 45.1118 23.367 45.1354 23.367 45.374C23.367 45.6244 23.2508 45.6361 22.8827 45.6361H22.2822C22.218 45.6361 22.166 45.6831 22.166 45.7411C22.166 45.7991 22.218 45.8461 22.2822 45.8461H22.8827C23.2025 45.8461 23.5994 45.8461 23.5994 45.3739C23.5994 44.9016 23.0667 44.9009 22.5536 44.9009Z" fill="#525252"/>
<path d="M8.0699 44.5117H6.93672C6.87256 44.5117 6.82056 44.5588 6.82056 44.6167V45.615C6.82056 45.673 6.87256 45.72 6.93672 45.72H8.0699C8.13406 45.72 8.18606 45.673 8.18606 45.615V44.6167C8.18606 44.5588 8.13406 44.5117 8.0699 44.5117ZM7.95373 45.5091H7.05299V45.089H7.4601V44.721H7.95373V45.5091Z" fill="#525252"/>
<path d="M21.8355 29.5937C21.3201 28.6214 19.4191 27.5091 19.4191 27.5091C18.9889 27.2643 18.47 27.237 18.2246 27.6734C18.2246 27.6734 17.6071 28.4129 17.4499 28.5192C16.7322 29.0047 16.0675 28.986 15.3965 28.3159L13.837 26.759L12.2776 25.2022C11.6063 24.5321 11.5876 23.8688 12.0739 23.1523C12.1804 22.9954 12.9211 22.3789 12.9211 22.3789C13.358 22.1339 13.3309 21.6158 13.0857 21.1864C13.0857 21.1864 11.9716 19.2886 10.9976 18.7741C10.5832 18.5551 10.0743 18.6315 9.74278 18.9625L9.05389 19.6502C6.86936 21.8311 7.94492 24.2936 10.1294 26.4744L12.1261 28.4677L14.1227 30.4609C16.3072 32.6418 18.7739 33.7158 20.9584 31.5347L21.6473 30.8469C21.9783 30.5157 22.0549 30.0074 21.8355 29.5937Z" fill="#FEE801"/>
<path d="M18.354 33C18.0678 33 17.7762 32.9656 17.4785 32.897C16.3566 32.6381 15.1626 31.8829 13.9301 30.6522L9.93711 26.6654C7.22363 23.9568 6.85162 21.4647 8.86128 19.4582L9.55017 18.7704C9.96861 18.3524 10.6002 18.2578 11.124 18.5341C12.1548 19.0784 13.2724 20.9686 13.3194 21.0489C13.5187 21.3978 13.5812 21.7559 13.4967 22.0603C13.4332 22.2893 13.2882 22.4756 13.0769 22.6014C12.7456 22.8779 12.3584 23.2208 12.2979 23.3048C11.8626 23.9456 11.9139 24.4561 12.4692 25.0105L15.5881 28.1241C16.1429 28.6779 16.6536 28.7294 17.2974 28.2946C17.3803 28.2347 17.7237 27.8484 18.0013 27.5174C18.127 27.3065 18.3138 27.1617 18.543 27.0983C18.8482 27.0135 19.2069 27.0761 19.5534 27.2734C19.6367 27.3222 21.5302 28.4383 22.0754 29.467C22.3524 29.9891 22.2571 30.6205 21.8386 31.0382L21.1497 31.7259C20.3006 32.5733 19.3633 33 18.354 33ZM10.4965 18.9198C10.2907 18.9198 10.0881 19 9.9344 19.1535L9.2455 19.8412C7.46204 21.6219 7.824 23.789 10.3213 26.2821L14.3143 30.2686C16.8117 32.762 18.9823 33.1228 20.7661 31.3424L21.455 30.6546C21.7037 30.4063 21.7602 30.0309 21.5959 29.7205C21.2027 28.9788 19.7921 28.0414 19.2821 27.7427C19.0714 27.6226 18.8476 27.5776 18.6888 27.6207C18.591 27.6481 18.5166 27.7085 18.4618 27.8061L18.4335 27.847C18.2405 28.0783 17.7729 28.628 17.6026 28.7435C16.7473 29.3217 15.9408 29.2426 15.2047 28.5077L12.0853 25.3938C11.3488 24.6589 11.2693 23.8532 11.8487 22.9998C11.9641 22.8299 12.5154 22.3631 12.747 22.1701L12.7877 22.1419C12.8855 22.0871 12.9463 22.0128 12.9735 21.9153C13.0177 21.7559 12.9713 21.5333 12.8494 21.32C12.8404 21.3045 11.7646 19.4853 10.8701 19.0128C10.7515 18.9504 10.623 18.9198 10.4965 18.9198Z" fill="#FEE801"/>
<path d="M18.4469 30.0176C18.4376 30.0176 18.4281 30.0171 18.4186 30.0163C16.5464 29.8222 15.3206 28.6346 15.2691 28.5842C15.1623 28.4792 15.1613 28.3079 15.2661 28.2014C15.3709 28.0943 15.5428 28.093 15.65 28.1979C15.6612 28.2087 16.7978 29.3031 18.4746 29.4768C18.6236 29.4925 18.732 29.6256 18.7168 29.7747C18.7021 29.9138 18.5843 30.0176 18.4469 30.0176Z" fill="#FEE801"/>
<path d="M12.4729 25.6801C12.412 25.6801 12.3512 25.6598 12.3004 25.618C12.2383 25.5671 10.7695 24.3399 10.5737 22.455C10.5583 22.3059 10.6669 22.1728 10.8159 22.1571C10.9658 22.1438 11.0986 22.2501 11.1144 22.3989C11.2868 24.0579 12.6328 25.1886 12.6464 25.1997C12.7618 25.2954 12.7781 25.4659 12.6828 25.5814C12.6285 25.6465 12.5511 25.6801 12.4729 25.6801Z" fill="#FEE801"/>
<path d="M15.0164 17C14.8663 17 14.7449 17.1212 14.7449 17.2711C14.7449 17.421 14.8663 17.5422 15.0164 17.5422C19.6032 17.5422 23.335 21.2676 23.335 25.8467C23.335 25.9966 23.4564 26.1178 23.6065 26.1178C23.7567 26.1178 23.8781 25.9966 23.8781 25.8467C23.8781 20.9686 19.9027 17 15.0164 17Z" fill="#FEE801"/>
<path d="M15.0162 18.9058C14.866 18.9058 14.7446 19.0269 14.7446 19.1768C14.7446 19.3268 14.866 19.4479 15.0162 19.4479C18.5505 19.4479 21.4256 22.3184 21.4256 25.8465C21.4256 25.9964 21.5469 26.1176 21.6971 26.1176C21.8473 26.1176 21.9686 25.9964 21.9686 25.8465C21.9689 22.0197 18.8497 18.9058 15.0162 18.9058Z" fill="#FEE801"/>
<path d="M15.0162 20.8113C14.866 20.8113 14.7446 20.9325 14.7446 21.0824C14.7446 21.2323 14.866 21.3534 15.0162 21.3534C17.498 21.3534 19.5169 23.3692 19.5169 25.8466C19.5169 25.9965 19.6383 26.1177 19.7885 26.1177C19.9386 26.1177 20.06 25.9965 20.06 25.8466C20.06 23.0702 17.7973 20.8113 15.0162 20.8113Z" fill="#FEE801"/>
</g>
<defs>
<clipPath id="clip0_261_40">
<rect width="30" height="50" fill="white"/>
</clipPath>
</defs>
</svg>
