<svg width="43" height="43" viewBox="0 0 43 43" fill="none" xmlns="http://www.w3.org/2000/svg">
<g clip-path="url(#clip0_200_394)">
<path d="M21.5 3.87147C27.2445 3.87147 27.9245 3.897 30.1833 3.99778C32.2836 4.0905 33.4164 4.44256 34.1729 4.73684C35.1727 5.12384 35.8942 5.59415 36.6414 6.34128C37.3979 7.09781 37.8588 7.81134 38.2539 8.81109C38.5482 9.56762 38.9002 10.7085 38.9929 12.8007C39.0937 15.0689 39.1192 15.7489 39.1192 21.4853C39.1192 27.2218 39.0937 27.9098 38.9929 30.17C38.9002 32.2703 38.5482 33.4031 38.2539 34.1596C37.8669 35.1593 37.3979 35.8809 36.6494 36.6281C35.8929 37.3846 35.1794 37.8455 34.181 38.2406C33.4244 38.5348 32.2822 38.8869 30.1914 38.9796C27.9231 39.0804 27.2432 39.1059 21.5067 39.1059C15.7702 39.1059 15.0822 39.0804 12.8221 38.9796C10.7218 38.8869 9.589 38.5348 8.83247 38.2406C7.83272 37.8536 7.11112 37.3846 6.36266 36.6361C5.60613 35.8796 5.14522 35.1661 4.75016 34.1677C4.45587 33.4111 4.10381 32.2689 4.01109 30.1781C3.91031 27.9098 3.88478 27.2299 3.88478 21.4934C3.88478 15.7569 3.91031 15.0689 4.01109 12.8087C4.10381 10.7085 4.45587 9.57569 4.75016 8.81916C5.13716 7.8194 5.60747 7.09781 6.35459 6.34934C7.11112 5.59281 7.82466 5.1319 8.82441 4.73684C9.58094 4.44256 10.7218 4.0905 12.814 3.99778C15.0728 3.897 15.7541 3.87147 21.4987 3.87147H21.5ZM21.5 0.000123047C15.6627 0.000123047 14.9331 0.0256543 12.6393 0.126436C10.3549 0.227217 8.78409 0.596748 7.42422 1.12619C6.00522 1.67981 4.80391 2.41081 3.612 3.61212C2.41069 4.80537 1.67969 6.00534 1.12606 7.41628C0.596625 8.78556 0.227094 10.347 0.126312 12.6314C0.0255312 14.9332 0 15.6629 0 21.5001C0 27.3374 0.0255312 28.067 0.126312 30.3608C0.227094 32.6452 0.596625 34.216 1.12606 35.5759C1.68103 36.9949 2.41069 38.1962 3.612 39.3881C4.80391 40.58 6.00522 41.3204 7.41616 41.866C8.78544 42.3954 10.3469 42.765 12.6312 42.8657C14.9237 42.9665 15.6547 42.9921 21.4919 42.9921C27.3292 42.9921 28.0602 42.9665 30.3526 42.8657C32.637 42.765 34.2078 42.3954 35.5677 41.866C36.9787 41.3204 38.18 40.5814 39.3719 39.3881C40.5638 38.1949 41.3042 36.9949 41.8497 35.584C42.3792 34.2147 42.7487 32.6532 42.8495 30.3689C42.9503 28.0764 42.9758 27.3454 42.9758 21.5082C42.9758 15.6709 42.9503 14.9413 42.8495 12.6475C42.7487 10.3631 42.3792 8.79228 41.8497 7.4324C41.3203 6.004 40.5893 4.80403 39.3893 3.61078C38.1974 2.41887 36.9961 1.67847 35.5852 1.1329C34.2159 0.603467 32.6545 0.233936 30.3701 0.133154C28.0696 0.0243106 27.3386 -0.0012207 21.5013 -0.0012207L21.5 0.000123047Z" fill="#525252"/>
<path d="M21.5003 10.4557C15.4037 10.4557 10.4561 15.402 10.4561 21.5C10.4561 27.5979 15.4024 32.5443 21.5003 32.5443C27.5983 32.5443 32.5446 27.5979 32.5446 21.5C32.5446 15.4034 27.5983 10.4557 21.5003 10.4557ZM21.5003 28.6635C17.5443 28.6635 14.3368 25.456 14.3368 21.5C14.3368 17.544 17.5443 14.3364 21.5003 14.3364C25.4563 14.3364 28.6639 17.544 28.6639 21.5C28.6639 25.456 25.4563 28.6635 21.5003 28.6635Z" fill="#525252"/>
<path d="M35.5584 10.0192C35.5584 11.4436 34.4042 12.5979 32.9798 12.5979C31.5554 12.5979 30.4011 11.4436 30.4011 10.0192C30.4011 8.59483 31.5554 7.44055 32.9798 7.44055C34.4042 7.44055 35.5584 8.59483 35.5584 10.0192Z" fill="#525252"/>
</g>
<defs>
<clipPath id="clip0_200_394">
<rect width="43" height="43" fill="white"/>
</clipPath>
</defs>
</svg>
