<svg width="101" height="100" fill="none" xmlns="http://www.w3.org/2000/svg"><path d="M15.104 51.418c-.513-.667-.926-1.623-1.238-2.868-1.07-4.535-2.71-11.78-4.919-21.74-2.208-9.96-3.67-16.607-4.383-19.942-.09-.443-.134-.733-.134-.867 0-.266.09-.455.268-.567.178-.11.513-.166 1.003-.166h4.418l5.62 25.875c.58 2.935 1.317 7.27 2.21 13.006l.468 3.2c.803-6.49 1.606-11.892 2.41-16.206l5.019-24.275c.133-.577.289-.989.468-1.233.178-.244.49-.367.937-.367h4.684L21.63 52.151c-1.294.177-2.81.266-4.55.266-.803 0-1.462-.332-1.975-1zM63.456 6.802c0-.578.089-.956.268-1.134.178-.177.579-.288 1.204-.334.625-.043 1.941-.066 3.95-.066v41.615h11.51v4.001c0 .4-.09.679-.268.834-.18.156-.446.233-.803.233h-15.86V6.8zM101 5.268v3.935c0 .444-.089.744-.267.9-.179.156-.469.233-.87.233H91.63v40.548c0 .4-.09.666-.268.8-.179.133-.713.211-1.606.233-.893.023-2.074.034-3.546.034V10.336h-9.102V6.335c0-.711.378-1.067 1.137-1.067H101zM41.431 43.637c-.413-1.02-.735-2.28-.963-3.79-.38-2.512-.568-5.903-.568-10.17 0-.286.003-.556.004-.834h-1.175l2.649-23.202a9.357 9.357 0 00-2.014 1.228c-1.874 1.511-3.269 4-4.183 7.47-.915 3.467-1.372 8.135-1.372 14.004 0 6.402.402 11.348 1.205 14.838.803 3.49 2.063 5.936 3.781 7.336.491.4 1.042.737 1.642 1.024l.994-7.904zm15.903-29.633c-.781-3.378-2.02-5.79-3.715-7.236-.085-.073-.18-.135-.269-.205l-2.129 7.064c.403 1.032.714 2.31.926 3.845.11.8.202 1.711.278 2.709l3.33-.188-3.076 7.495c0 .264.003.518.003.788 0 4.624-.212 8.292-.636 11.004-.424 2.712-1.104 4.691-2.04 5.935-.938 1.246-2.232 1.867-3.882 1.867a5.71 5.71 0 01-1.002-.088L43 52.358c.896.17 1.868.26 2.924.26 2.989 0 5.398-.778 7.227-2.335 1.83-1.555 3.18-4.111 4.05-7.669.87-3.556 1.305-8.38 1.305-14.472 0-6.046-.391-10.759-1.172-14.138z" fill="#373535"/><path d="M42.329 3.114L54.411.91l-5.919 20.523 6.04-.447-14.206 36.61 4.013-29.733-4.84.33 2.83-25.078z" fill="#FEE801"/><path d="M42.329 3.114l9.42.285-3.257 18.033L54.412.908 42.328 3.114z" fill="#F9CE35"/><path d="M47.254 25.944l-5.75-.168.825-22.662-2.83 25.077 4.84-.322-4.013 29.725 6.928-31.65z" fill="#F9CE35"/><path d="M39.498 28.19l5.324-.372-4.826-.12 1.94-21.1m-.001 0L39.498 28.19zm-.751 44.639l3.638-23.418-.484.05-3.154 23.368z" fill="#FCD336"/><path d="M44.057 21.669l8.707.525-12.437 35.4 14.206-36.61-10.476.685z" fill="#FBD236"/><path d="M54.532 20.985l-1.768 1.209-12.438 35.401 14.206-36.61z" fill="#fff" opacity=".2"/><path d="M53.531 21.669l-.767.525-12.438 35.4L53.531 21.67z" fill="#fff" opacity=".2"/><path d="M3.305 65.24l94.614-6.592V92.5L3.305 98.516V65.24z" fill="#373535"/><path d="M3.305 65.24l94.614-6.592V92.5L3.305 98.516V65.24z" fill="#373535"/><path d="M5.59 63.852l90.276-3.127v32.822L5.59 96.984V63.852z" fill="#FEE801"/><path d="M5.59 63.852l90.276-3.127v32.822L5.59 96.984V63.852z" fill="#FEE801"/><path d="M17.325 74.638a148.84 148.84 0 00-.036 3.865c0 1.742.012 3.03.036 3.865a30 30 0 00.322 2.863c.167 1.05.453 1.79.859 2.22.405.428.954.643 1.646.643s1.634-.047 2.827-.143c1.193-.12 1.968-.19 2.326-.215v3.472c-.215.023-.93.143-2.147.358-1.193.19-2.147.286-2.863.286-.716 0-1.36-.084-1.932-.25a7.35 7.35 0 01-1.503-.538 3.605 3.605 0 01-1.146-1.037 15.774 15.774 0 01-.823-1.289c-.214-.381-.393-.93-.536-1.646a44.87 44.87 0 01-.322-1.825c-.072-.477-.132-1.18-.18-2.111a47.543 47.543 0 01-.071-2.219v-4.831c0-1.718.06-2.97.179-3.758.12-.811.25-1.574.394-2.29.143-.716.322-1.253.536-1.61.215-.382.49-.8.823-1.253.335-.453.716-.787 1.146-1.002 1.05-.525 2.195-.787 3.435-.787l4.974 1.145c-.19 1.383-.548 2.242-1.073 2.576-.286.167-.692.25-1.217.25-.525 0-1.145-.07-1.86-.214l-1.003-.25c-.668 0-1.205.214-1.61.644-.406.43-.692 1.18-.86 2.254a28.553 28.553 0 00-.321 2.827zm14.541 14.78c0 1.098-.119 1.742-.357 1.933-.215.167-.955.25-2.22.25h-.75V65.835h.75c1.265 0 2.005.096 2.22.286.238.167.357.8.357 1.897v7.229l-.143.895h5.905l-.107-.895v-9.412h.787c1.264 0 2.004.096 2.219.286.238.167.358.8.358 1.897v23.583h-.716c-1.312 0-2.088-.083-2.326-.25-.215-.191-.322-.835-.322-1.933v-9.34l.286-.751H31.58l.287.823v9.268zm24.544-1.002v3.185H45.173V65.835h10.88v3.042h-7.695l.323.895v5.475l-.323.895h7.265v3.185h-7.229l.287.823v7.372l-.323.894h8.052zm14.469 0v3.185H59.642V65.835H70.52v3.042h-7.694l.322.895v5.475l-.322.895h7.264v3.185h-7.228l.286.823v7.372l-.322.894h8.052zm4.09 3.185h-.859V65.8l5.118-.393c2.147 0 3.626.31 4.437.93.31.239.573.453.787.644.215.191.394.477.537.86l.286 1.001c.167.453.251 1.05.251 1.79v2.075c0 3.436-.49 5.583-1.467 6.442-.43.381-.99.608-1.682.68l5.69 11.773h-1.181c-1.193 0-2.004-.107-2.434-.322-.429-.238-.823-.763-1.18-1.574l-4.402-9.77h-1.682l.322.895.036 8.588c0 1.098-.108 1.742-.322 1.933-.215.167-.967.25-2.255.25zm4.33-14.851c1.288 0 2.064-.263 2.326-.787.287-.525.43-1.384.43-2.577s-.012-1.944-.036-2.254c0-.335-.048-.704-.143-1.11-.096-.43-.239-.716-.43-.859-.5-.382-1.216-.572-2.147-.572h-2.111l.322.894v6.442l-.286.823h2.075z" fill="#373535"/></svg>