<svg width="98" height="57" fill="none" xmlns="http://www.w3.org/2000/svg"><path d="M11.123 50.51c-.514-.667-.927-1.623-1.238-2.869-1.07-4.534-2.71-11.78-4.92-21.74-2.207-9.96-3.67-16.606-4.382-19.94-.09-.444-.134-.734-.134-.868 0-.266.089-.455.267-.567.178-.11.513-.166 1.004-.166h4.417l5.622 25.875c.58 2.935 1.315 7.27 2.208 13.005l.469 3.201c.802-6.49 1.606-11.892 2.409-16.206l5.02-24.275c.133-.577.289-.99.468-1.233.177-.244.49-.367.937-.367h4.684L17.648 51.243c-1.295.177-2.811.266-4.551.266-.803 0-1.462-.333-1.974-1zM59.475 5.894c0-.578.088-.956.267-1.134.178-.177.58-.288 1.205-.334.624-.043 1.94-.066 3.949-.066v41.615h11.51v4.001c0 .4-.09.679-.268.834-.179.156-.446.233-.803.233h-15.86V5.894zM97.019 4.36v3.935c0 .444-.09.744-.267.9-.18.156-.47.233-.87.233h-8.233v40.548c0 .4-.09.666-.267.8-.18.133-.714.211-1.606.233-.893.023-2.075.034-3.547.034V9.428h-9.102V5.427c0-.711.379-1.067 1.138-1.067h22.754zM37.45 42.729c-.413-1.02-.736-2.28-.963-3.79-.38-2.512-.569-5.903-.569-10.17 0-.286.003-.557.005-.834h-1.175l2.648-23.202a9.356 9.356 0 00-2.014 1.227c-1.874 1.512-3.268 4.001-4.182 7.47-.916 3.468-1.372 8.136-1.372 14.004 0 6.403.401 11.349 1.204 14.84.804 3.49 2.063 5.934 3.782 7.335.49.4 1.042.737 1.641 1.024l.995-7.904zm15.902-29.633c-.78-3.378-2.019-5.79-3.715-7.236-.085-.073-.18-.136-.268-.205l-2.13 7.064c.404 1.032.714 2.31.927 3.845.11.8.202 1.71.278 2.708l3.329-.188-3.076 7.496c0 .264.004.517.004.788 0 4.624-.212 8.292-.636 11.004-.425 2.711-1.104 4.691-2.041 5.935-.937 1.245-2.231 1.867-3.882 1.867-.352 0-.684-.032-1.001-.088l-2.123 5.364c.896.17 1.867.26 2.923.26 2.99 0 5.398-.778 7.228-2.335 1.829-1.556 3.18-4.111 4.049-7.67.87-3.555 1.305-8.38 1.305-14.47 0-6.047-.39-10.76-1.171-14.14z" fill="#373535"/><path d="M38.348 2.206L50.43.001l-5.92 20.523 6.04-.447-14.205 36.61 4.013-29.733-4.84.33 2.83-25.078z" fill="#FEE801"/><path d="M38.347 2.206l9.421.285-3.258 18.032L50.43 0 38.347 2.206z" fill="#F9CE35"/><path d="M43.273 25.036l-5.75-.169.825-22.661-2.83 25.077 4.84-.323-4.013 29.726 6.928-31.65z" fill="#F9CE35"/><path d="M35.517 27.283l5.324-.373-4.826-.12 1.94-21.1m-.001 0l-2.438 21.593z" fill="#FCD336"/><path d="M37.203 50.329L40.84 26.91l-.484.05-3.154 23.369z" fill="#FCD336"/><path d="M40.075 20.76l8.708.526-12.438 35.4 14.206-36.61-10.476.685z" fill="#FBD236"/><path d="M50.551 20.076l-1.769 1.21-12.437 35.4 14.206-36.61z" fill="#fff" opacity=".2"/><path d="M49.55 20.76l-.767.526-12.438 35.4L49.55 20.762z" fill="#fff" opacity=".2"/></svg>