<svg width="43" height="43" viewBox="0 0 43 43" fill="none" xmlns="http://www.w3.org/2000/svg">
<g clip-path="url(#clip0_200_399)">
<path d="M19.6226 0.0362813C21.9702 0 24.2989 0.0188125 26.6276 0C26.7714 2.74125 27.7563 5.53625 29.7626 7.47125C31.7688 9.46 34.6001 10.3738 37.3588 10.6788V17.8987C34.7788 17.8087 32.1813 17.2712 29.8338 16.1613C28.8125 15.695 27.8625 15.1038 26.9313 14.495C26.9138 19.7263 26.9487 24.9588 26.895 30.1726C26.7512 32.6813 25.9275 35.1713 24.4762 37.2313C22.1287 40.6713 18.0625 42.9113 13.8875 42.9825C11.325 43.1263 8.76378 42.4276 6.5775 41.1376C2.95878 39.005 0.413716 35.1001 0.0374662 30.9076C0.00118493 30.0113 -0.0162838 29.1164 0.0199974 28.2376C0.342497 24.8338 2.02622 21.5726 4.6425 19.3513C7.61622 16.7713 11.7738 15.5351 15.6612 16.2701C15.6975 18.9213 15.59 21.5739 15.59 24.2251C13.8163 23.6513 11.7375 23.8126 10.1787 24.8876C9.05 25.6226 8.19 26.7514 7.74253 28.0226C7.36628 28.9363 7.47378 29.9401 7.49125 30.9076C7.92125 33.8464 10.7525 36.3189 13.7625 36.0501C15.7687 36.0327 17.6863 34.8676 18.725 33.1651C19.065 32.5738 19.4412 31.9651 19.46 31.2664C19.6387 28.0588 19.5675 24.8701 19.585 21.6626C19.6025 14.4426 19.5675 7.24013 19.6213 0.037625L19.6226 0.0362813Z" fill="#525252"/>
</g>
<defs>
<clipPath id="clip0_200_399">
<rect width="43" height="43" fill="white"/>
</clipPath>
</defs>
</svg>
