<svg width="97" height="57" fill="none" xmlns="http://www.w3.org/2000/svg"><g filter="url(#filter0_b_260_2)"><path d="M10.674 50.51c-.514-.668-.927-1.623-1.238-2.869-1.07-4.535-2.71-11.78-4.92-21.74C2.31 15.941.847 9.295.135 5.96.044 5.517 0 5.227 0 5.093c0-.267.089-.455.267-.567.178-.11.513-.166 1.004-.166h4.417l5.622 25.875c.58 2.934 1.315 7.27 2.208 13.005l.469 3.201c.802-6.49 1.606-11.892 2.409-16.206l5.02-24.275c.133-.577.289-.99.468-1.234.177-.243.49-.366.937-.366h4.684L17.199 51.243c-1.295.177-2.811.266-4.55.266-.804 0-1.463-.333-1.975-1zM59.026 5.894c0-.578.088-.956.267-1.135.178-.177.58-.288 1.205-.333.624-.043 1.94-.067 3.949-.067v41.616h11.51v4c0 .4-.09.68-.268.834-.179.157-.446.234-.802.234H59.025V5.893zM96.57 4.36v3.935c0 .444-.09.744-.267.9-.18.156-.47.233-.87.233H87.2v40.548c0 .4-.09.666-.267.8-.18.133-.714.211-1.606.233-.893.023-2.075.034-3.547.034V9.428h-9.102V5.426c0-.71.379-1.067 1.138-1.067H96.57zM37 42.728c-.412-1.02-.735-2.28-.962-3.79-.38-2.511-.569-5.902-.569-10.17 0-.285.003-.556.005-.833h-1.175l2.648-23.202a9.357 9.357 0 00-2.014 1.227c-1.874 1.512-3.268 4.001-4.183 7.47-.915 3.467-1.371 8.136-1.371 14.004 0 6.403.401 11.348 1.204 14.839.804 3.49 2.063 5.935 3.782 7.335a8.11 8.11 0 001.641 1.024l.995-7.904zm15.903-29.632c-.78-3.378-2.019-5.79-3.715-7.237-.085-.072-.18-.135-.268-.204l-2.13 7.064c.404 1.032.714 2.31.927 3.844.11.801.202 1.712.278 2.71l3.329-.189-3.076 7.496c0 .263.004.517.004.788 0 4.624-.212 8.292-.636 11.003-.425 2.712-1.104 4.692-2.041 5.936-.937 1.245-2.231 1.867-3.882 1.867a5.71 5.71 0 01-1.001-.089l-2.123 5.364c.896.17 1.867.26 2.923.26 2.99 0 5.399-.777 7.228-2.334 1.829-1.556 3.18-4.112 4.049-7.67.87-3.556 1.305-8.38 1.305-14.471 0-6.047-.39-10.76-1.17-14.138z" fill="#373535"/><path d="M37.899 2.206L49.98 0l-5.92 20.523 6.04-.446-14.205 36.61 4.013-29.733-4.84.329 2.83-25.077z" fill="#EFEFEF"/><path d="M37.898 2.206l9.421.285-3.258 18.032L49.981 0 37.898 2.206z" fill="#B9B9B9"/><path d="M42.824 25.035l-5.75-.168.825-22.661-2.83 25.077 4.84-.323-4.013 29.726 6.928-31.65z" fill="#C4C4C4"/><path d="M35.068 27.283l5.324-.373-4.826-.12 1.94-21.1m-.001 0l-2.438 21.592zm-.751 44.639l3.638-23.419-.484.05-3.154 23.369z" fill="#8A8A8A"/><path d="M39.627 20.76l8.707.525-12.438 35.401 14.206-36.61-10.475.684z" fill="#CBCBCB"/><path d="M50.102 20.076l-1.769 1.209-12.437 35.401 14.206-36.61z" fill="#222" opacity=".2"/><path d="M49.101 20.76l-.767.525-12.438 35.401L49.101 20.76z" fill="#222" opacity=".2"/></g><defs><filter id="filter0_b_260_2" x="-4" y="-4" width="104.57" height="64.686" filterUnits="userSpaceOnUse" color-interpolation-filters="sRGB"><feFlood flood-opacity="0" result="BackgroundImageFix"/><feGaussianBlur in="BackgroundImage" stdDeviation="2"/><feComposite in2="SourceAlpha" operator="in" result="effect1_backgroundBlur_260_2"/><feBlend in="SourceGraphic" in2="effect1_backgroundBlur_260_2" result="shape"/></filter></defs></svg>